<?xml version="1.0" encoding="UTF-8" standalone="no"?>
<!DOCTYPE svg PUBLIC "-//W3C//DTD SVG 1.1//EN" "http://www.w3.org/Graphics/SVG/1.1/DTD/svg11.dtd">
<svg width="100%" height="100%" viewBox="0 0 720 230" version="1.1" xmlns="http://www.w3.org/2000/svg" xmlns:xlink="http://www.w3.org/1999/xlink" xml:space="preserve" xmlns:serif="http://www.serif.com/" style="fill-rule:evenodd;clip-rule:evenodd;stroke-linecap:round;stroke-linejoin:round;stroke-miterlimit:1.5;">
    <g transform="matrix(1,0,0,1,-152.177525,-397.117801)">
        <g id="Fondo">
            <path d="M717.686,473.391C718,472.999 718.876,473.675 719.19,473.282C719.594,472.778 718.36,472.329 721.708,465.608C740.212,428.46 779.639,451.137 790.607,446.709C792.826,445.813 789.509,406.273 760.492,407.23C744.677,407.752 740.263,420.265 735.266,410.599C732.16,404.591 776.775,387.028 808.232,404.993C833.287,419.302 833.601,437.208 835.43,445.525C836.212,449.08 866.513,444.548 866.748,448.464C867.394,459.262 860.97,453.649 837.465,454.209C835.182,454.263 835.73,455.115 835.742,457.495C836.045,517.298 835.344,517.132 835.9,535.485C837.123,575.848 861.196,563.165 864.399,560.386C868.244,557.051 868.722,559.221 871.023,561.873C874.489,565.869 851.255,587.622 824.465,582.721C783.882,575.296 792.826,538.918 791.909,456.467C791.889,454.689 790.667,453.75 777.482,454.309C773.741,454.467 770.765,489.465 768.897,494.723C767.014,500.023 748.988,463.915 728.519,473.539C711.802,481.398 716.221,559.546 727.888,578.285C731.621,584.282 725.528,581.096 718.495,581.089C670.688,581.038 670.677,581.792 666.574,581.145C664.76,580.858 666.175,580.061 668.195,576.383C671.308,570.714 674.649,561.569 675.104,540.489C676.841,459.869 670.902,459.985 664.455,448.523C662.844,445.659 666.092,446.692 705.497,446.821C714.071,446.849 718.079,443.939 718.132,452.5C718.228,468.296 717.5,468.17 717.686,473.391Z" style="fill:rgb(1,1,1);"/>
            <path d="M207.263,472.315C220.457,432.149 275.122,435.385 284.424,474.548C287.304,486.671 282.543,447.744 323.489,444.315C366.051,440.752 367.844,489.154 368.043,494.52C368.87,516.854 358.589,629.579 411.6,615.877C419.809,613.755 423.02,607.168 426.618,615.441C430.588,624.57 330.072,653.951 324.99,560.467C322.682,518.022 332.822,459.002 301.432,467.286C277.635,473.567 288.414,557.518 292.259,568.583C294.879,576.125 299.014,580.959 297.335,581.048C294.086,581.22 240.256,580.977 235.292,580.954C230.722,580.933 243.784,578.545 243.98,524.489C244.014,515.187 248.95,456.875 220.492,467.479C215.539,469.325 203.592,470.011 206.917,539.48C208.813,579.106 218.903,577.464 217.25,580.409C216.523,581.705 154.464,580.991 154.316,580.711C152.151,576.614 163.492,577.555 163.385,523.499C163.301,480.964 164.982,468.545 152.619,448.445C150.444,444.91 154.612,446.172 204.476,446.867C206.876,446.9 206.734,453.555 206.358,464.5C206.146,470.688 204.187,472.442 207.263,472.315Z" style="fill:rgb(1,1,1);"/>
            <path d="M456.534,582.924C451.161,582.96 418.175,587.274 394.934,554.202C362.845,508.54 396.013,432.946 462.545,445.254C532.819,458.254 540.263,571.514 456.534,582.924ZM448.268,465.715C447.173,464.702 438.564,456.734 432.435,455.856C393.479,450.272 431.596,553.698 461.391,568.717C495.508,585.915 490.544,515.326 448.268,465.715Z" style="fill:rgb(1,1,1);"/>
        </g>
        <g transform="matrix(0.798005,0,0,0.798005,428.037193,266.346367)">
            <path d="M152,239C157.122,235.125 162.513,231.62 170,231C176.84,231.687 176.632,238.321 174,247L122,360C114.749,371.61 116.414,379.419 128,383L231,383C236.362,383.015 242.007,389.04 242,395C243.982,387.736 241.555,378.244 232,376C201.822,371.305 186.477,371.656 177,354C165.331,334.903 170.71,316.922 177,299C177.964,309.94 176.14,320.953 173,332L208,251C212.581,234.005 200.968,219.614 186,221C169.882,223.109 159.991,230.282 152,239Z" style="stroke:black;stroke-width:1.25px;"/>
        </g>
        <g transform="matrix(0.798005,0,0,0.798005,428.037193,266.346367)">
            <path d="M202,221.908C208.104,221.048 227.885,220.151 233,234L294,366C297.678,373.114 296.203,379.712 287,383L242.64,383C240.143,377.572 235.316,373.866 228,372C216.966,371.246 200.453,367.068 197,364C192.465,358.847 197.135,348.732 203,347C214.298,342.544 235.189,349.397 234,336C233.743,329.755 233.122,322.746 234,322C234.656,321.443 233.619,320.25 233.266,319.524C232.75,318.462 231.999,317.617 231,317C230.982,312.722 234.184,312.934 234,311C233.816,309.066 229.944,308.388 229.898,305.394C229.867,303.421 234.189,301.675 235,301C236.695,299.065 236.68,295.728 235,294C228.926,290.53 224.187,285.986 220,281C218.719,279.614 219.688,276.655 219,273C217.269,263.804 214.477,255.887 210,250C210.862,238.069 209.247,230.851 202,221.908Z"/>
        </g>
    </g>
</svg>
